<svg width="1191" height="648" viewBox="0 0 1191 648" fill="none" xmlns="http://www.w3.org/2000/svg">
<path d="M1189.5 1H8.00001L8 646.23H1189.5V1Z" fill="white" stroke="black" stroke-width="2"/>
<path d="M1187.5 365H10V541H1187.5V365Z" fill="#666666" stroke="#666666" stroke-width="2"/>
<path d="M1188.5 530.5V536H9V530.5H1188.5Z" fill="white"/>
<path d="M1188.5 367V370.5H9V367H1188.5Z" fill="white"/>
<rect width="1178.5" height="103.22" transform="translate(9 542)" fill="#95C11F" fill-opacity="0.6"/>
<path d="M9 298L40.2994 298H84.6307H123.129H175.627H217.625H246.79H326.12H359.366L1188.5 298V364H9V298Z" fill="#95C11F" fill-opacity="0.3"/>
<g opacity="0.9">
<g opacity="0.9">
<path d="M115.581 244.337C118.528 252.468 143.055 249.984 146.453 251.559C161.439 256.285 210.553 230.272 211.118 234.083C211.242 239.538 226.172 263.394 231.45 263.868C244.429 265.322 256.301 259.153 265.663 249.181C270.354 244.744 270.785 241.999 273.19 242.529C274.145 242.518 275.546 232.309 281.655 226.214C285.895 222.32 292.139 222.781 295.876 218.356C303.4 211.684 328.926 202.524 337.646 198.095C354.249 189.669 362.833 187.361 376.782 188.823C387.381 190.867 395.44 186.927 405.996 186.772C417.015 186.072 424.645 183.776 435.666 183.096C446.243 184.041 455.836 183.919 466.834 182.119C468.26 181.541 469.688 180.983 470.621 179.872C471.569 178.78 474.444 178.744 475.859 178.167C484.989 178.59 493.719 182.836 502.306 180.549C504.686 179.959 507.982 177.179 506.976 175.013C501.94 164.142 494.093 156.607 485.31 150.162C477.019 144.251 467.45 145.493 457.365 145.082C443.44 144.74 432.129 132.31 423.693 119.845C417.712 110.087 412.091 94.3061 400.62 96.652C387.269 100.099 375.978 110.118 361.516 107.023C351.38 104.434 343.161 101.8 333.079 101.409C331.631 100.888 325.848 99.8617 323.927 99.8864C312.959 102.764 299.487 100.776 293.009 111.793C281.129 116.882 274.34 113.69 265.408 122.019C254.147 133.116 242.894 145.294 228.61 149.852C220.518 152.693 212.856 153.891 204.692 153.455C201.818 153.512 190.609 145.437 187.19 142.763C180.841 137.927 172.792 142.967 167.627 147.95C159.681 157.346 151.19 164.031 140.769 169.639C136.96 170.787 133.075 168.636 128.763 169.252C118.753 172.139 112.211 179.856 103.68 184.363C71.064 194.702 76.1706 198.945 74.7123 198.425C71.3767 199.027 69.3295 193.576 65.0066 193.091C59.2443 193.165 54.0605 197.068 50.7839 200.927C40.9488 211.446 28.722 222.556 14.249 219.463C15.2363 220.549 15.75 222.182 16.7049 222.171C36.948 226.271 53.9683 236.428 74.5048 232.309C76.3932 231.186 78.7662 229.516 81.1494 228.946C85.451 228.332 89.2712 227.183 93.0804 226.035C99.7762 224.85 113.006 237.235 115.556 244.32L115.581 244.337Z" fill="#E8F0D0"/>
<path opacity="0.9" d="M457.15 145.371C467.235 145.782 476.807 144.561 485.095 150.451C493.878 156.896 501.714 164.432 506.761 175.301C507.778 177.465 504.472 180.247 502.091 180.837C493.507 183.145 484.775 178.878 475.658 178.474C474.229 179.032 471.356 179.088 470.42 180.179C469.487 181.29 468.058 181.848 466.633 182.426C455.633 184.206 446.042 184.348 435.465 183.403C424.446 184.103 416.817 186.4 405.795 187.079C395.237 187.214 387.177 191.153 376.567 189.11C362.622 187.669 354.035 189.957 337.431 198.383C328.712 202.812 303.197 211.97 295.662 218.643C291.925 223.068 285.67 222.609 281.439 226.48C281.439 226.48 277.559 222.789 269.268 216.878L346.006 163.555L457.15 145.371Z" fill="#C2D87F"/>
<path d="M279.826 216.742C279.826 216.742 245.55 242.008 246.5 219.588C246.5 219.588 269.189 161.332 289.728 157.233C289.728 157.233 304.538 154.306 312.167 152.009C312.167 152.009 327.194 158.914 342.369 151.046C342.369 151.046 404.237 128.33 409.671 135.357C409.671 135.357 436.064 135.541 443.367 140.366C443.367 140.366 455.204 154.426 466.631 150.984C466.631 150.984 503.822 161.964 486.188 167.105C486.188 167.105 476.23 172.168 470.981 173.875C470.981 173.875 394.31 178.209 389.408 173.895C389.408 173.895 304.129 166.662 279.815 216.744L279.826 216.742Z" fill="#CFE09B"/>
<path d="M279.322 222.951C279.322 222.951 258.517 250.935 243.293 235.297C243.293 235.297 202.373 220.208 212.114 205.312C212.114 205.312 250.148 146.858 289.774 138.098C289.774 138.098 294.076 137.483 301.07 128.119C301.07 128.119 321.443 116.365 332.206 126.044C332.206 126.044 360.771 137.134 372.179 132.611C372.179 132.611 382.902 140.111 389.033 135.115C389.033 135.115 325.83 162.767 316.514 153.61C316.514 153.61 285.621 145.287 260.204 188.808C260.204 188.808 254.779 219.486 279.324 222.972L279.322 222.951Z" fill="#DCE8B7"/>
<path d="M262.95 255.79C259.214 260.215 255.487 265.741 251.256 269.613C248.905 271.28 245.052 271.331 242.198 272.467C238.389 273.614 234.034 272.031 231.126 270.969C217.527 263.506 197.633 266.16 185.409 255.942C183.467 254.866 182.02 254.345 180.099 254.37C179.626 254.916 177.737 256.039 177.275 256.583C171.545 257.755 165.783 257.829 160.545 259.535C151.982 262.943 142.79 259.241 134.058 254.974C129.21 252.857 123.427 251.831 118.117 250.259C108.946 247.657 106.732 234.552 98.0754 233.583C84.0973 231.043 73.3074 241.574 59.3617 240.132C51.1648 238.598 43.9662 238.149 36.2105 234.97C30.3865 231.765 24.1129 230.227 17.8155 227.568C16.3657 227.026 12.4217 222.72 12.4114 221.619C12.8525 219.975 16.2205 220.471 18.1089 219.349C23.3252 216.544 26.8196 222.516 30.7013 224.646C35.549 226.762 41.2601 224.511 47.009 224.418C49.4221 224.926 51.3643 226.001 53.7988 227.61C57.2181 230.284 61.4684 227.492 65.7511 225.798C70.9673 222.993 77.2947 226.73 83.0136 225.559C90.6643 224.362 96.2491 216.636 103.018 218.728C97.215 216.623 126.443 214.591 120.732 216.843C121.192 216.277 123.167 218.451 123.681 220.084C123.699 221.163 124.213 222.796 123.753 223.361C120.006 227.787 121.117 234.329 120.275 239.797C120.769 240.35 136.09 239.036 142.417 242.772C147.286 245.989 151.682 249.752 157.444 249.678C158.861 249.121 159.281 246.377 160.718 245.797C164.067 245.215 201.646 218.249 206.464 219.288C209.37 220.329 213.284 223.557 212.864 226.301C213.031 233.956 218.371 236.606 220.91 242.589C221.424 244.222 220.509 246.413 221.023 248.046C223.035 252.378 226.511 257.271 229.879 257.767C235.681 259.873 242.41 259.786 247.155 257.547L262.949 255.687L262.95 255.79Z" fill="#F1F6E4"/>
<path d="M390.883 100.346C390.883 100.346 371.99 113.718 350.421 103.898C350.421 103.898 332.818 100.046 329.254 101.45L323.472 99.8826C323.472 99.8826 296.96 102.046 293.262 111.5C293.262 111.5 280.9 116.595 278.713 115.264C278.713 115.264 268.401 115.675 257.458 130.304" stroke="#D9E6B1"/>
<path d="M153.003 265.499C148.512 264.83 126.969 259.667 120.796 255.721C111.079 250.013 101.993 244.319 92.2553 237.886C91.2888 237.525 90.0082 237.541 89.3802 238.297C84.3728 243.465 77.2897 241.376 72.2421 244.366C70.028 245.493 68.1585 247.695 65.5999 247.749C52.1679 247.94 39.2797 243.726 26.9941 237.345C21.811 234.506 17.2352 230.186 12.0313 226.622C11.0441 225.536 9.43007 224.476 9.39959 223.024C9.05258 221.929 11.2996 222.274 12.4109 221.699C13.8582 222.221 15.1717 223.677 17.0997 224.359C20.6688 226.138 24.8134 225.712 28.0549 227.85C31.6129 229.631 34.549 232.125 38.41 233.529C40.9918 234.222 43.2389 234.567 45.7889 234.535C55.086 235.496 64.0387 235.383 72.9694 233.795C76.0657 229.378 81.8683 231.484 86.0239 231.057C87.3044 231.04 88.6057 231.749 90.2015 232.104C94.043 232.054 97.8309 229.807 100.758 232.323C106.645 238.078 112.52 243.086 119.322 247.025C124.831 250.234 147.382 257.209 153.143 257.863C160.854 259.196 167.804 255.478 175.171 255.737C175.811 255.728 171.273 266.51 153.006 265.519L153.003 265.499Z" fill="#FBFCF6"/>
</g>
<path d="M918.832 108.453L1024.33 136.095H922.235L883.1 108.453H918.832Z" fill="#CBBBA0" fill-opacity="0.65"/>
<path d="M1034.54 141.623L1188.5 189.5V289.044H1102.6L929.041 141.623H1034.54Z" fill="#CBBBA0" fill-opacity="0.83"/>
<path d="M881.398 108.453L918.832 136.095H799.725L847.368 108.453H881.398Z" fill="#CBBBA0" fill-opacity="0.65"/>
<path d="M923.937 141.623L1063.46 289.044H571.719L794.62 141.623H923.937Z" fill="#CBBBA0" fill-opacity="0.83"/>
<path d="M845.05 108.453L796.321 136.095H678.915L796.321 108.453H845.05Z" fill="#CBBBA0" fill-opacity="0.65"/>
<path d="M789.515 141.623L532.583 289.044H197.381L661.9 141.623H789.515Z" fill="#CBBBA0" fill-opacity="0.83"/>
</g>
<g opacity="0.9">
<path d="M316.163 119.808C320.079 127.238 369.749 128.124 376.163 129.914C404.992 135.88 509.576 119.374 509.779 122.755C508.699 127.51 532.757 150.091 543.2 151.157C568.811 154.032 594.063 150.145 615.218 142.642C625.683 139.37 627.213 137.037 631.895 137.797C633.808 137.905 639.096 129.209 652.802 124.671C662.232 121.815 674.61 122.99 683.162 119.609C699.839 114.746 753.133 109.955 771.655 107.188C806.921 101.927 824.656 100.987 852.203 103.988C872.908 107.08 889.99 104.657 911.145 105.832C933.358 106.592 949.18 105.543 971.393 106.321C992.323 108.454 1011.54 109.539 1033.98 109.34C1036.97 109.014 1039.97 108.707 1042.11 107.857C1044.27 107.026 1050.03 107.351 1053 107.026C1071.16 108.526 1087.59 113.299 1105.32 112.377C1110.23 112.16 1117.5 110.153 1116.01 108.147C1108.59 98.0765 1094.72 90.5555 1078.72 83.8661C1063.58 77.7011 1044.13 77.5926 1024.06 75.9836C996.284 73.9587 976.681 61.7552 962.84 49.8771C953.253 40.6567 945.849 26.2475 922.33 26.8622C894.783 28.2001 869.757 35.5041 841.58 31.0204C821.932 27.5131 806.134 24.2045 786.058 22.6136C783.29 21.9808 771.97 20.3717 768.121 20.1548C745.481 21.2938 719.014 17.8949 703.373 26.6633C678.369 29.6102 665.563 25.9944 645.668 32.1233C620.439 40.3674 594.963 49.5517 565.278 51.7393C548.399 53.2037 532.78 53.2941 516.553 51.902C510.792 51.5946 490.334 43.1878 484.145 40.4397C472.622 35.4499 455.293 38.8307 443.747 42.5188C425.563 49.6963 406.95 54.4512 384.737 58.0309C376.838 58.5552 369.591 56.2049 360.814 56.2049C340.086 57.4704 325.12 63.3643 306.958 66.2208C239.193 71.1564 248.376 75.4774 245.585 74.8446C238.766 74.9531 235.997 69.9632 227.468 69.005C215.922 68.3541 204.602 71.1022 197.108 74.0491C174.872 81.9678 147.708 90.1035 119.508 85.6198C121.218 86.6865 121.849 88.169 123.762 88.2775C163.259 94.3521 194.835 105.29 236.92 104.26C240.971 103.518 246.125 102.361 251.031 102.162C259.786 102.162 267.708 101.638 275.607 101.114C289.291 100.915 312.742 113.317 316.118 119.79L316.163 119.808Z" fill="#E8F0D0"/>
<path d="M1128.36 116.499C1128.36 116.499 1166.49 109.036 1134.81 119.716C1134.81 119.716 1234.11 160.05 1127.14 151.013C1127.14 151.013 1106.25 155.198 1082.28 140.535C1082.28 140.535 1012.52 116.399 980.883 115.821C980.883 115.821 956.103 103.383 938.017 105.67C938.017 105.67 1107.94 103.018 1128.36 116.499Z" fill="#C2D87F" fill-opacity="0.84"/>
<path opacity="0.9" d="M1023.53 76.2007C1043.6 77.8097 1063.05 77.9363 1078.19 84.0832C1094.2 90.7726 1108.04 98.2936 1115.49 108.364C1116.99 110.371 1109.7 112.377 1104.8 112.594C1087.06 113.534 1070.63 108.743 1052.49 107.261C1049.5 107.568 1043.74 107.261 1041.6 108.093C1039.46 108.942 1036.47 109.25 1033.47 109.575C1011.04 109.756 991.817 108.689 970.887 106.556C948.673 105.796 932.852 106.845 910.639 106.068C889.483 104.874 872.402 107.297 851.674 104.205C824.127 101.222 806.393 102.144 771.126 107.405C752.604 110.172 699.333 114.963 682.634 119.826C674.082 123.207 661.681 122.032 652.274 124.87C652.274 124.87 645.41 121.182 630.263 115.017L796.76 78.2075L1023.53 76.2007Z" fill="#C2D87F"/>
<path opacity="0.9" d="M423.015 200.271C434.407 194.874 445.85 191.204 453.036 181.763C460.573 171.577 466.597 160.878 468.119 148.566C468.437 146.108 463.559 145.249 460.601 145.904C449.863 148.102 441.532 156.3 431.247 161.208C429.392 161.417 426.079 162.798 424.579 162.281C423.074 161.745 421.22 161.954 419.36 162.144C406.062 166.022 395.02 170.674 383.273 176.797C370.377 181.658 360.738 183.391 347.846 188.272C335.698 193.413 324.923 193.879 313.569 201.008C298.159 209.258 287.426 211.476 265.105 212.156C253.381 212.51 220.566 216.971 209.319 214.712C203.305 212.586 196.32 216.117 189.956 214.737C189.956 214.737 186.957 219.997 179.776 229.458L288.573 239.275L423.015 200.271Z" fill="#C2D87F"/>
<path d="M651.453 116.21C651.453 116.21 576.734 133.909 584.094 114.546C584.094 114.546 643.666 66.7448 685.752 65.7323C685.752 65.7323 716.089 65.0272 731.911 63.9786C731.911 63.9786 760.29 71.8431 792.563 66.8894C792.563 66.8894 921.859 54.8305 931.018 61.6103C931.018 61.6103 983.772 65.0453 997.208 70.1437C997.208 70.1437 1017.46 83.8297 1041.16 82.2568C1041.16 82.2568 1112.89 96.4129 1076.36 98.6908C1076.36 98.6908 1055.2 101.855 1044.29 102.686C1044.29 102.686 889.855 96.9372 881.101 92.58C881.101 92.58 712.263 75.7121 651.43 116.21H651.453Z" fill="#CFE09B"/>
<path d="M648.932 121.543C648.932 121.543 600.499 143.274 573.853 127.798C573.853 127.798 495.668 109.611 518.781 97.8773C518.781 97.8773 609.097 51.8113 690.5 49.1175C690.5 49.1175 699.254 49.1175 715.526 41.8496C715.526 41.8496 759.142 34.1659 778.317 43.9106C778.317 43.9106 832.758 57.0904 856.681 54.5774C856.681 54.5774 876.306 62.4238 889.787 58.8441C889.787 58.8441 756.621 75.0251 740.215 65.9131C740.215 65.9131 680.44 54.8486 618.999 89.5066C618.999 89.5066 600.679 115.486 648.932 121.561V121.543Z" fill="#DCE8B7"/>
<path d="M244.333 191.732C244.333 191.732 187.139 214.866 157.307 194.325C157.307 194.325 68.1533 167.068 95.5288 154.376C95.5288 154.376 202.511 104.516 296.624 106.663C296.624 106.663 306.728 107.245 325.941 99.5128C325.941 99.5128 376.738 93.0952 398.289 106.188C398.289 106.188 460.337 125.793 488.098 124.336C488.098 124.336 510.281 135.157 526.053 131.713C526.053 131.713 371.395 142.48 353.002 130.338C353.002 130.338 284.671 112.944 211.694 150.889C211.694 150.889 189.003 181.178 244.331 191.754L244.333 191.732Z" fill="#DCE8B7" fill-opacity="0.5"/>
<path d="M608.174 148.047C599.621 151.428 590.822 155.767 581.414 158.606C576.306 159.763 568.586 159.329 562.6 159.962C554.7 160.486 546.373 158.57 540.814 157.286C515.428 149.114 474.985 148.951 453.02 138.556C449.396 137.381 446.628 136.748 442.779 136.531C441.699 136.947 437.648 137.688 436.59 138.104C424.842 138.411 413.297 137.76 402.404 138.592C384.445 140.49 366.958 136.133 350.529 131.342C341.346 128.901 330.026 127.292 319.786 125.267C302.074 121.869 300.836 110.207 283.754 108.291C256.41 104.35 232.261 112.16 204.715 109.177C188.69 106.827 174.399 105.543 159.658 101.819C148.788 98.3113 136.612 96.196 124.662 93.1045C121.894 92.4536 115.052 88.223 115.3 87.2648C116.582 85.8908 123.199 86.7405 127.25 85.9993C138.368 84.2094 143.904 89.8321 151.151 92.1643C160.333 94.605 172.306 93.3576 183.829 93.9903C188.533 94.7316 192.156 95.9067 196.635 97.6062C202.824 100.354 212.006 98.4559 220.986 97.5158C232.104 95.726 243.852 99.7576 255.577 99.4503C271.174 99.3599 284.227 93.3395 297.258 95.9971C286.163 93.448 345.127 95.3101 333.154 96.5576C334.212 96.1237 337.633 98.257 338.263 99.7395C338.038 100.68 338.668 102.162 337.611 102.596C329.036 105.977 329.666 111.798 326.65 116.445C327.505 116.987 358.473 117.747 370.221 121.778C379.178 125.177 387.055 128.992 398.601 129.643C401.572 129.335 403.079 127.003 406.095 126.678C412.937 126.587 494.678 107.821 504.062 109.322C509.621 110.587 516.666 113.878 515.158 116.21C513.627 122.881 523.665 125.846 527.288 131.36C527.918 132.843 525.555 134.633 526.185 136.115C529.156 140.129 534.918 144.811 541.534 145.661C552.63 148.21 566.111 148.969 576.148 147.613L608.196 147.957L608.174 148.047Z" fill="#F1F6E4"/>
<path d="M901.929 28.8687C901.929 28.8687 860.878 38.1434 820.121 26.9342C820.121 26.9342 785.845 21.402 778.373 22.1794L767.187 20.1003C767.187 20.1003 713.624 18.6901 703.924 26.4461C703.924 26.4461 677.952 29.3388 673.901 27.9105C673.901 27.9105 653.174 26.9885 627.72 38.3423" stroke="#D9E6B1"/>
<path d="M385.863 142.84C377.041 141.701 335.203 134.542 323.815 130.348C305.765 124.182 288.976 118.108 271.061 111.31C269.216 110.876 266.65 110.731 265.21 111.31C253.935 115.179 240.274 112.485 229.448 114.456C224.745 115.161 220.469 116.842 215.337 116.571C188.421 115.071 163.664 109.809 140.641 102.74C130.964 99.6308 122.862 95.3099 113.319 91.5675C111.609 90.5008 108.638 89.3799 108.931 88.1143C108.503 87.12 112.914 87.6985 115.277 87.3369C118.045 87.9697 120.318 89.3979 124.009 90.2296C130.716 92.2183 139.111 92.363 145.075 94.6229C151.759 96.6116 157.025 99.1427 164.407 100.842C169.403 101.764 173.814 102.343 178.923 102.632C197.288 104.621 215.225 105.633 233.477 105.362C240.746 101.909 251.842 104.458 260.259 104.603C262.824 104.747 265.255 105.525 268.361 106.031C276.058 106.465 284.182 104.982 289.426 107.531C299.801 113.263 310.334 118.343 322.982 122.61C333.222 126.081 376.636 134.94 388.001 136.223C403.102 138.339 417.911 135.97 432.585 137.109C433.867 137.181 422.165 145.986 385.863 142.858V142.84Z" fill="#FBFCF6"/>
</g>
</svg>
