<svg width="220" height="72" viewBox="0 0 220 72" fill="none" xmlns="http://www.w3.org/2000/svg">
<path d="M178.862 18.971C149.126 7.60608 144.544 50.3937 177.271 44.0867" stroke="white" stroke-width="3"/>
<path d="M213 30.75H198.5" stroke="white" stroke-width="3"/>
<path d="M181 48L213 60.5V6H181" stroke="white" stroke-width="3"/>
<ellipse cx="84" cy="21.5" rx="14" ry="14.5" fill="black"/>
<ellipse cx="84" cy="21.5" rx="17" ry="17.5" fill="white"/>
<ellipse cx="84" cy="21.5" rx="14" ry="14.5" fill="#A4957C"/>
<path d="M178 4.5V48.5" stroke="white" stroke-width="3"/>
<path d="M126 6H174.5" stroke="white" stroke-width="3"/>
<path d="M130 11.5198L174.5 11.5198" stroke="white" stroke-width="3"/>
<path d="M117 23C128.281 25.3872 122.187 32.3884 134 37.5M143 16.5V40.5" stroke="white" stroke-width="3"/>
<path d="M107.45 23.7466C134.799 26.1122 129.828 -2.21439 103.608 7.30246" stroke="white" stroke-width="3"/>
<path d="M104.489 37L104.488 23.0791L104.488 5.63415" stroke="white" stroke-width="3"/>
<path d="M65.443 6.48451C28.1354 0.214061 33.7326 57.1971 70 39.6181" stroke="white" stroke-width="3"/>
<path d="M7 30.5H21.5" stroke="white" stroke-width="3"/>
<path d="M39 48L7 60.5V6H39" stroke="white" stroke-width="3"/>
<path d="M7 66.0673C86.7008 31.2117 131.949 31.4103 213.5 66.0673" stroke="white" stroke-width="3"/>
</svg>
